# xmcd
#
# Track frame offsets: 
#        150
#        13790
#        34110
#        48007
#        65192
#        81705
#        97522
#        114842
#        128907
#        145220
#        157217
#        173685
#
# Disc length: 2517 seconds
#
# Revision: 1
# Processed by: cddbd v1.5.2PL0 Copyright (c) Steve Scherf et al.
# Submitted via: ExactAudioCopyFreeDBPlugin 1.0
#
DISCID=9c09d30c
DTITLE=Various Artist - Didn't It Blow Your Mind!:  Soul Hits of the 
DTITLE='70s [Rhino series]
DYEAR=1991
DGENRE=SMB
TTITLE0=The O'Jays - Love Train
TTITLE1=Manu Dibango - Soul Makossa
TTITLE2=The Chi Lites - Stoned Out of My Mind
TTITLE3=Joe Simon with The Mainstreeters - Theme from "Cleopatra Jones
TTITLE3="
TTITLE4=Harold Melvin and The Blue Notes - The Love I Lost, Part 1
TTITLE5=Al Wilson - Show and Tell
TTITLE6=Eddie Kendricks - Boogie Down
TTITLE7=Kool and The Gang - Jungle Boogie
TTITLE8=M.F.S.B. - TSOP (The Sound of Philadelphia) (ft The Three Degr
TTITLE8=ees)
TTITLE9=Bobby Womack - Lookin' for a Love
TTITLE10=The Main Ingredient - Just Don't Want to Be Lonely
TTITLE11=William DeVaughn - Be Thankful for What You've Got
EXTD=
EXTT0=
EXTT1=
EXTT2=
EXTT3=
EXTT4=
EXTT5=
EXTT6=
EXTT7=
EXTT8=
EXTT9=
EXTT10=
EXTT11=
PLAYORDER=
